<?xml version="1.0" encoding="utf-8"?>
<!-- Generator: Adobe Illustrator 16.0.0, SVG Export Plug-In . SVG Version: 6.00 Build 0)  -->
<!DOCTYPE svg PUBLIC "-//W3C//DTD SVG 1.1//EN" "http://www.w3.org/Graphics/SVG/1.1/DTD/svg11.dtd">
<svg version="1.1" id="Layer_1" xmlns="http://www.w3.org/2000/svg" xmlns:xlink="http://www.w3.org/1999/xlink" x="0px" y="0px"
	 width="100px" height="100px" viewBox="0 0 100 100" enable-background="new 0 0 100 100" xml:space="preserve">
<g>
	<path fill-rule="evenodd" clip-rule="evenodd" fill="#FFFFFF" d="M50,3.051c-26.582,0-48.137,21.55-48.137,48.136
		c0,21.27,13.793,39.312,32.919,45.679c2.406,0.444,3.289-1.045,3.289-2.317c0-1.146-0.044-4.94-0.065-8.961
		c-13.392,2.911-16.218-5.68-16.218-5.68c-2.19-5.563-5.345-7.044-5.345-7.044c-4.368-2.988,0.33-2.927,0.33-2.927
		c4.833,0.34,7.378,4.962,7.378,4.962c4.293,7.357,11.261,5.231,14.009,4.001c0.432-3.109,1.679-5.234,3.056-6.438
		c-10.693-1.216-21.933-5.345-21.933-23.789c0-5.255,1.881-9.55,4.961-12.921c-0.5-1.212-2.148-6.108,0.466-12.739
		c0,0,4.042-1.293,13.241,4.935c3.84-1.067,7.958-1.601,12.049-1.62c4.091,0.019,8.212,0.553,12.058,1.62
		c9.19-6.228,13.225-4.935,13.225-4.935c2.621,6.63,0.974,11.526,0.475,12.739c3.085,3.371,4.954,7.666,4.954,12.921
		c0,18.489-11.263,22.56-21.982,23.752c1.728,1.493,3.268,4.424,3.268,8.914c0,6.439-0.058,11.625-0.058,13.209
		c0,1.282,0.868,2.783,3.307,2.312c19.116-6.373,32.892-24.411,32.892-45.673C98.137,24.602,76.584,3.051,50,3.051z"/>
	<path fill="#FFFFFF" d="M20.095,72.166c-0.106,0.24-0.483,0.311-0.826,0.146c-0.349-0.158-0.544-0.483-0.431-0.724
		c0.104-0.246,0.48-0.314,0.829-0.15C20.017,71.597,20.215,71.926,20.095,72.166L20.095,72.166z M19.502,71.727"/>
	<path fill="#FFFFFF" d="M22.045,74.34c-0.23,0.213-0.68,0.115-0.984-0.222c-0.314-0.336-0.374-0.784-0.141-1.001
		c0.237-0.212,0.672-0.113,0.987,0.223C22.223,73.678,22.285,74.125,22.045,74.34L22.045,74.34z M21.585,73.847"/>
	<path fill="#FFFFFF" d="M23.943,77.112c-0.295,0.205-0.778,0.014-1.076-0.414c-0.295-0.429-0.295-0.941,0.007-1.147
		c0.299-0.206,0.773-0.02,1.076,0.402C24.245,76.389,24.245,76.903,23.943,77.112L23.943,77.112z M23.943,77.112"/>
	<path fill="#FFFFFF" d="M26.543,79.792c-0.264,0.291-0.826,0.211-1.238-0.186c-0.42-0.388-0.537-0.938-0.273-1.23
		c0.268-0.291,0.833-0.209,1.247,0.185C26.697,78.949,26.824,79.504,26.543,79.792L26.543,79.792z M26.543,79.792"/>
	<path fill="#FFFFFF" d="M30.13,81.347c-0.117,0.376-0.658,0.548-1.203,0.389c-0.545-0.165-0.901-0.608-0.791-0.987
		c0.113-0.381,0.657-0.561,1.206-0.388C29.886,80.525,30.243,80.962,30.13,81.347L30.13,81.347z M30.13,81.347"/>
	<path fill="#FFFFFF" d="M34.07,81.635c0.013,0.396-0.449,0.725-1.021,0.733c-0.575,0.013-1.042-0.309-1.047-0.699
		c0-0.401,0.452-0.726,1.027-0.736C33.601,80.921,34.07,81.24,34.07,81.635L34.07,81.635z M34.07,81.635"/>
	<path fill="#FFFFFF" d="M37.736,81.01c0.068,0.389-0.33,0.785-0.898,0.893c-0.559,0.102-1.076-0.139-1.147-0.521
		c-0.069-0.397,0.336-0.796,0.894-0.898C37.154,80.386,37.663,80.616,37.736,81.01L37.736,81.01z M37.736,81.01"/>
</g>
</svg>
